# Blender v2.79 (sub 0) OBJ File: ''
# www.blender.org
mtllib leg.mtl
o Plane_Plane.003
v -0.844891 5.245150 0.895375
v 0.580367 5.245150 0.895375
v -0.844891 5.245150 -0.529883
v 0.580367 5.245150 -0.529883
v -0.844891 -3.211975 -0.529883
v -0.844891 -3.211975 0.895375
v 0.580367 -3.211975 0.895375
v 0.580367 -3.211975 -0.529883
vt 0.000000 0.000000
vt 1.000000 0.000000
vt 1.000000 1.000000
vt 0.000000 1.000000
vt 0.000000 0.000000
vt 1.000000 0.000000
vt 1.000000 1.000000
vt 0.000000 1.000000
vt 0.000000 0.000000
vt 1.000000 1.000000
vt 0.000000 1.000000
vt 1.000000 0.000000
vt 1.000000 1.000000
vt 0.000000 1.000000
vt 0.000000 0.000000
vt 1.000000 0.000000
vt 0.000000 1.000000
vt 0.000000 0.000000
vt 1.000000 0.000000
vt 1.000000 1.000000
vn 0.0000 -1.0000 0.0000
vn 0.0000 1.0000 0.0000
vn 0.0000 0.0000 1.0000
vn 0.0000 0.0000 -1.0000
vn -1.0000 0.0000 0.0000
vn 1.0000 0.0000 0.0000
usemtl None
s off
f 1/1/1 3/2/1 4/3/1 2/4/1
f 6/5/2 7/6/2 8/7/2 5/8/2
f 4/9/3 3/2/3 5/10/3 8/11/3
f 1/1/4 2/12/4 7/13/4 6/14/4
f 2/15/5 4/16/5 8/7/5 7/17/5
f 3/18/6 1/19/6 6/20/6 5/8/6
